<mxfile host="app.diagrams.net" agent="Mozilla/5.0 (Windows NT 10.0; Win64; x64) AppleWebKit/537.36 (KHTML, like Gecko) Chrome/128.0.0.0 Safari/537.36" version="24.7.8">
  <diagram name="PÃ¡gina-1" id="hVXGtIFBgFP9FtGlEUMT">
    <mxGraphModel grid="1" page="1" gridSize="10" guides="1" tooltips="1" connect="1" arrows="1" fold="1" pageScale="1" pageWidth="827" pageHeight="1169" math="0" shadow="0">
      <root>
        <mxCell id="0" />
        <mxCell id="1" parent="0" />
        <mxCell id="vj92zbRVKEU24iZh36zc-19" style="edgeStyle=orthogonalEdgeStyle;rounded=0;orthogonalLoop=1;jettySize=auto;html=1;entryX=0;entryY=0.5;entryDx=0;entryDy=0;" edge="1" parent="1" source="vj92zbRVKEU24iZh36zc-1" target="vj92zbRVKEU24iZh36zc-3">
          <mxGeometry relative="1" as="geometry" />
        </mxCell>
        <mxCell id="vj92zbRVKEU24iZh36zc-21" style="edgeStyle=orthogonalEdgeStyle;rounded=0;orthogonalLoop=1;jettySize=auto;html=1;entryX=0;entryY=0.5;entryDx=0;entryDy=0;" edge="1" parent="1" source="vj92zbRVKEU24iZh36zc-1" target="vj92zbRVKEU24iZh36zc-4">
          <mxGeometry relative="1" as="geometry" />
        </mxCell>
        <mxCell id="vj92zbRVKEU24iZh36zc-22" style="edgeStyle=orthogonalEdgeStyle;rounded=0;orthogonalLoop=1;jettySize=auto;html=1;entryX=0;entryY=0.5;entryDx=0;entryDy=0;" edge="1" parent="1" source="vj92zbRVKEU24iZh36zc-1" target="vj92zbRVKEU24iZh36zc-7">
          <mxGeometry relative="1" as="geometry" />
        </mxCell>
        <mxCell id="vj92zbRVKEU24iZh36zc-23" style="edgeStyle=orthogonalEdgeStyle;rounded=0;orthogonalLoop=1;jettySize=auto;html=1;entryX=0;entryY=0.5;entryDx=0;entryDy=0;" edge="1" parent="1" source="vj92zbRVKEU24iZh36zc-1" target="vj92zbRVKEU24iZh36zc-8">
          <mxGeometry relative="1" as="geometry" />
        </mxCell>
        <mxCell id="vj92zbRVKEU24iZh36zc-24" style="edgeStyle=orthogonalEdgeStyle;rounded=0;orthogonalLoop=1;jettySize=auto;html=1;entryX=0;entryY=0.5;entryDx=0;entryDy=0;" edge="1" parent="1" source="vj92zbRVKEU24iZh36zc-1" target="vj92zbRVKEU24iZh36zc-12">
          <mxGeometry relative="1" as="geometry" />
        </mxCell>
        <mxCell id="vj92zbRVKEU24iZh36zc-25" style="edgeStyle=orthogonalEdgeStyle;rounded=0;orthogonalLoop=1;jettySize=auto;html=1;entryX=0;entryY=0.5;entryDx=0;entryDy=0;" edge="1" parent="1" source="vj92zbRVKEU24iZh36zc-1" target="vj92zbRVKEU24iZh36zc-13">
          <mxGeometry relative="1" as="geometry" />
        </mxCell>
        <mxCell id="vj92zbRVKEU24iZh36zc-26" style="edgeStyle=orthogonalEdgeStyle;rounded=0;orthogonalLoop=1;jettySize=auto;html=1;entryX=0;entryY=0.5;entryDx=0;entryDy=0;" edge="1" parent="1" source="vj92zbRVKEU24iZh36zc-1" target="vj92zbRVKEU24iZh36zc-14">
          <mxGeometry relative="1" as="geometry" />
        </mxCell>
        <mxCell id="vj92zbRVKEU24iZh36zc-27" style="edgeStyle=orthogonalEdgeStyle;rounded=0;orthogonalLoop=1;jettySize=auto;html=1;entryX=0;entryY=0.5;entryDx=0;entryDy=0;" edge="1" parent="1" source="vj92zbRVKEU24iZh36zc-1" target="vj92zbRVKEU24iZh36zc-15">
          <mxGeometry relative="1" as="geometry" />
        </mxCell>
        <mxCell id="vj92zbRVKEU24iZh36zc-1" value="Usuario" style="shape=umlActor;verticalLabelPosition=bottom;verticalAlign=top;html=1;outlineConnect=0;" vertex="1" parent="1">
          <mxGeometry x="30" y="365" width="30" height="60" as="geometry" />
        </mxCell>
        <mxCell id="vj92zbRVKEU24iZh36zc-2" value="" style="swimlane;startSize=0;" vertex="1" parent="1">
          <mxGeometry x="200" y="40" width="580" height="710" as="geometry" />
        </mxCell>
        <mxCell id="vj92zbRVKEU24iZh36zc-3" value="Configurar alertas" style="ellipse;whiteSpace=wrap;html=1;" vertex="1" parent="vj92zbRVKEU24iZh36zc-2">
          <mxGeometry y="40" width="140" height="70" as="geometry" />
        </mxCell>
        <mxCell id="vj92zbRVKEU24iZh36zc-4" value="Gestionar contactos de emergencia" style="ellipse;whiteSpace=wrap;html=1;" vertex="1" parent="vj92zbRVKEU24iZh36zc-2">
          <mxGeometry y="110" width="140" height="70" as="geometry" />
        </mxCell>
        <mxCell id="vj92zbRVKEU24iZh36zc-5" value="App Earth Alert" style="text;html=1;align=center;verticalAlign=middle;resizable=0;points=[];autosize=1;strokeColor=none;fillColor=none;" vertex="1" parent="vj92zbRVKEU24iZh36zc-2">
          <mxGeometry x="210" width="100" height="30" as="geometry" />
        </mxCell>
        <mxCell id="vj92zbRVKEU24iZh36zc-10" style="edgeStyle=orthogonalEdgeStyle;rounded=0;orthogonalLoop=1;jettySize=auto;html=1;dashed=1;" edge="1" parent="vj92zbRVKEU24iZh36zc-2" source="vj92zbRVKEU24iZh36zc-8" target="vj92zbRVKEU24iZh36zc-9">
          <mxGeometry relative="1" as="geometry" />
        </mxCell>
        <mxCell id="vj92zbRVKEU24iZh36zc-11" value="Includes&lt;div&gt;&lt;br&gt;&lt;/div&gt;" style="edgeLabel;html=1;align=center;verticalAlign=middle;resizable=0;points=[];" vertex="1" connectable="0" parent="vj92zbRVKEU24iZh36zc-10">
          <mxGeometry x="-0.2343" relative="1" as="geometry">
            <mxPoint as="offset" />
          </mxGeometry>
        </mxCell>
        <mxCell id="vj92zbRVKEU24iZh36zc-8" value="Iniciar sesion" style="ellipse;whiteSpace=wrap;html=1;" vertex="1" parent="vj92zbRVKEU24iZh36zc-2">
          <mxGeometry y="250" width="140" height="70" as="geometry" />
        </mxCell>
        <mxCell id="vj92zbRVKEU24iZh36zc-9" value="Inciiar sesion con google" style="ellipse;whiteSpace=wrap;html=1;" vertex="1" parent="vj92zbRVKEU24iZh36zc-2">
          <mxGeometry x="280" y="180" width="140" height="70" as="geometry" />
        </mxCell>
        <mxCell id="vj92zbRVKEU24iZh36zc-13" value="Ver mapa interactivoi" style="ellipse;whiteSpace=wrap;html=1;" vertex="1" parent="vj92zbRVKEU24iZh36zc-2">
          <mxGeometry y="390" width="140" height="70" as="geometry" />
        </mxCell>
        <mxCell id="vj92zbRVKEU24iZh36zc-14" value="Cambiar idio&lt;span style=&quot;background-color: initial;&quot;&gt;ma de la app&lt;/span&gt;" style="ellipse;whiteSpace=wrap;html=1;" vertex="1" parent="vj92zbRVKEU24iZh36zc-2">
          <mxGeometry y="460" width="140" height="70" as="geometry" />
        </mxCell>
        <mxCell id="vj92zbRVKEU24iZh36zc-15" value="Enviar recomendiaciones a los desarroladores de la app" style="ellipse;whiteSpace=wrap;html=1;" vertex="1" parent="vj92zbRVKEU24iZh36zc-2">
          <mxGeometry y="530" width="140" height="70" as="geometry" />
        </mxCell>
        <mxCell id="vj92zbRVKEU24iZh36zc-29" style="edgeStyle=orthogonalEdgeStyle;rounded=0;orthogonalLoop=1;jettySize=auto;html=1;entryX=1;entryY=0.5;entryDx=0;entryDy=0;dashed=1;" edge="1" parent="vj92zbRVKEU24iZh36zc-2" source="vj92zbRVKEU24iZh36zc-16" target="vj92zbRVKEU24iZh36zc-8">
          <mxGeometry relative="1" as="geometry" />
        </mxCell>
        <mxCell id="vj92zbRVKEU24iZh36zc-30" value="Extends" style="edgeLabel;html=1;align=center;verticalAlign=middle;resizable=0;points=[];" vertex="1" connectable="0" parent="vj92zbRVKEU24iZh36zc-29">
          <mxGeometry x="-0.673" y="-2" relative="1" as="geometry">
            <mxPoint as="offset" />
          </mxGeometry>
        </mxCell>
        <mxCell id="vj92zbRVKEU24iZh36zc-16" value="&lt;div&gt;&lt;font face=&quot;Calibri&quot;&gt;&lt;span style=&quot;font-size: 14.6667px;&quot;&gt;Registrarse en la app&lt;/span&gt;&lt;/font&gt;&lt;/div&gt;&lt;div&gt;con un formulario&lt;/div&gt;" style="ellipse;whiteSpace=wrap;html=1;" vertex="1" parent="vj92zbRVKEU24iZh36zc-2">
          <mxGeometry x="280" y="320" width="140" height="70" as="geometry" />
        </mxCell>
        <mxCell id="vj92zbRVKEU24iZh36zc-12" value="Ver historial de sismos" style="ellipse;whiteSpace=wrap;html=1;" vertex="1" parent="vj92zbRVKEU24iZh36zc-2">
          <mxGeometry y="320" width="140" height="70" as="geometry" />
        </mxCell>
        <mxCell id="vj92zbRVKEU24iZh36zc-32" style="edgeStyle=orthogonalEdgeStyle;rounded=0;orthogonalLoop=1;jettySize=auto;html=1;entryX=1;entryY=0.5;entryDx=0;entryDy=0;dashed=1;" edge="1" parent="vj92zbRVKEU24iZh36zc-2" source="vj92zbRVKEU24iZh36zc-31" target="vj92zbRVKEU24iZh36zc-4">
          <mxGeometry relative="1" as="geometry" />
        </mxCell>
        <mxCell id="vj92zbRVKEU24iZh36zc-33" value="Extends" style="edgeLabel;html=1;align=center;verticalAlign=middle;resizable=0;points=[];" vertex="1" connectable="0" parent="vj92zbRVKEU24iZh36zc-32">
          <mxGeometry x="0.0776" y="-4" relative="1" as="geometry">
            <mxPoint as="offset" />
          </mxGeometry>
        </mxCell>
        <mxCell id="vj92zbRVKEU24iZh36zc-31" value="CRUD contactos de emergencia" style="ellipse;whiteSpace=wrap;html=1;" vertex="1" parent="vj92zbRVKEU24iZh36zc-2">
          <mxGeometry x="280" y="110" width="140" height="70" as="geometry" />
        </mxCell>
        <mxCell id="f4fkn2Q2vMraAwvb97vi-6" style="edgeStyle=orthogonalEdgeStyle;rounded=0;orthogonalLoop=1;jettySize=auto;html=1;entryX=1;entryY=0.5;entryDx=0;entryDy=0;dashed=1;" edge="1" parent="vj92zbRVKEU24iZh36zc-2" source="f4fkn2Q2vMraAwvb97vi-3" target="vj92zbRVKEU24iZh36zc-9">
          <mxGeometry relative="1" as="geometry" />
        </mxCell>
        <mxCell id="f4fkn2Q2vMraAwvb97vi-9" value="Extends" style="edgeLabel;html=1;align=center;verticalAlign=middle;resizable=0;points=[];" connectable="0" vertex="1" parent="f4fkn2Q2vMraAwvb97vi-6">
          <mxGeometry x="-0.3137" y="2" relative="1" as="geometry">
            <mxPoint as="offset" />
          </mxGeometry>
        </mxCell>
        <mxCell id="f4fkn2Q2vMraAwvb97vi-7" style="edgeStyle=orthogonalEdgeStyle;rounded=0;orthogonalLoop=1;jettySize=auto;html=1;entryX=1;entryY=0.5;entryDx=0;entryDy=0;dashed=1;" edge="1" parent="vj92zbRVKEU24iZh36zc-2" source="f4fkn2Q2vMraAwvb97vi-3" target="vj92zbRVKEU24iZh36zc-16">
          <mxGeometry relative="1" as="geometry" />
        </mxCell>
        <mxCell id="f4fkn2Q2vMraAwvb97vi-8" value="Extends" style="edgeLabel;html=1;align=center;verticalAlign=middle;resizable=0;points=[];" connectable="0" vertex="1" parent="f4fkn2Q2vMraAwvb97vi-7">
          <mxGeometry x="-0.2379" y="3" relative="1" as="geometry">
            <mxPoint as="offset" />
          </mxGeometry>
        </mxCell>
        <mxCell id="f4fkn2Q2vMraAwvb97vi-3" value="Administrar usuarios" style="ellipse;whiteSpace=wrap;html=1;" vertex="1" parent="vj92zbRVKEU24iZh36zc-2">
          <mxGeometry x="410" y="250" width="140" height="70" as="geometry" />
        </mxCell>
        <mxCell id="vj92zbRVKEU24iZh36zc-7" value="Recibir recomendaciones de seguridad periodicamente" style="ellipse;whiteSpace=wrap;html=1;" vertex="1" parent="1">
          <mxGeometry x="200" y="220" width="140" height="70" as="geometry" />
        </mxCell>
        <mxCell id="f4fkn2Q2vMraAwvb97vi-4" style="edgeStyle=orthogonalEdgeStyle;rounded=0;orthogonalLoop=1;jettySize=auto;html=1;entryX=1;entryY=0.5;entryDx=0;entryDy=0;" edge="1" parent="1" source="f4fkn2Q2vMraAwvb97vi-2" target="f4fkn2Q2vMraAwvb97vi-3">
          <mxGeometry relative="1" as="geometry" />
        </mxCell>
        <mxCell id="f4fkn2Q2vMraAwvb97vi-2" value="Administrador" style="shape=umlActor;verticalLabelPosition=bottom;verticalAlign=top;html=1;outlineConnect=0;" vertex="1" parent="1">
          <mxGeometry x="900" y="295" width="30" height="60" as="geometry" />
        </mxCell>
      </root>
    </mxGraphModel>
  </diagram>
</mxfile>
